<svg width="22" height="17" viewBox="0 0 22 17" fill="none" xmlns="http://www.w3.org/2000/svg">
<path d="M3 1L18 16" stroke="black" stroke-width="2" stroke-linecap="round"/>
<path fill-rule="evenodd" clip-rule="evenodd" d="M5.22307 2.63729C2.99927 4.01245 1.30234 6.15776 0.503753 8.70035C0.338261 9.22726 0.631246 9.78856 1.15815 9.95405C1.68506 10.1195 2.24636 9.82656 2.41185 9.29965C3.11389 7.06443 4.66449 5.20561 6.68546 4.09967L5.22307 2.63729ZM8.47958 5.89379C7.57683 6.6272 7 7.74624 7 9C7 11.2091 8.79086 13 11 13C12.2538 13 13.3728 12.4232 14.1062 11.5204L12.6766 10.0908C12.3198 10.6382 11.7021 11 11 11C9.89543 11 9 10.1046 9 9C9 8.29786 9.36182 7.68023 9.90917 7.32339L8.47958 5.89379ZM14.9627 9.54849L10.4515 5.03729C10.6308 5.0127 10.8139 5 11 5C13.2091 5 15 6.79086 15 9C15 9.18607 14.9873 9.36917 14.9627 9.54849ZM8.70856 3.29435L7.11855 1.70434C8.32543 1.24911 9.63352 1 11 1C15.9269 1 20.0948 4.23844 21.4962 8.70035C21.6617 9.22726 21.3688 9.78856 20.8418 9.95405C20.3149 10.1195 19.7536 9.82656 19.5881 9.29965C18.441 5.64735 15.0284 3 11 3C10.2082 3 9.44023 3.10227 8.70856 3.29435Z" fill="black"/>
</svg>
