<svg width="124" height="104" viewBox="0 0 124 104" fill="none" xmlns="http://www.w3.org/2000/svg">
<g filter="url(#filter0_d_37_2)">
<path d="M80 81H61.5H16C9.92487 81 5 76.0751 5 70V64V19.5V12C5 5.92487 9.92487 1 16 1H107C113.075 1 118 5.92487 118 12V19.5V64V76C118 78.7614 115.761 81 113 81V81" stroke="black" stroke-width="2"/>
</g>
<rect x="18" y="1" width="8" height="18" fill="black"/>
<rect x="81" y="2" width="8" height="17" fill="black"/>
<rect x="96" y="2" width="8" height="17" fill="black"/>
<rect x="18" y="63" width="8" height="18" fill="black"/>
<rect x="33" y="63" width="8" height="18" fill="black"/>
<rect x="48" y="63" width="8" height="18" fill="black"/>
<path d="M118 21V20H117H76.6788C75.7155 20 75.0519 20.653 74.7585 21.3155C74.467 21.9735 74.4333 22.8602 74.9415 23.5838C77.3261 26.9785 79.8293 33.7587 77.2118 43.447L77.0653 43.9891L77.4519 44.3964L84.3319 51.6436L84.6276 51.9551H85.0571C86.013 51.9551 87.61 52.1546 89.1831 52.7583C90.7582 53.3628 92.2044 54.3303 93.0322 55.7953L93.0979 55.9116L93.1918 56.0065L101.498 64.4063C101.874 64.7862 102.386 65 102.92 65H117H118V64V21Z" fill="#5AB2FF" stroke="black" stroke-width="2"/>
<ellipse cx="109.833" cy="28" rx="4.09524" ry="4" fill="#F6F5F5"/>
<ellipse cx="101.131" cy="31.5" rx="2.55952" ry="2.5" fill="#F6F5F5"/>
<ellipse cx="107.274" cy="35.5" rx="1.53571" ry="1.5" fill="#F6F5F5"/>
<path d="M60 64H61V63V59.7934C61 58.7641 60.199 58.0665 59.586 57.7235C58.9421 57.3633 58.0395 57.1194 57.2368 57.3446C55.4699 57.8404 52.9803 57.9097 50.4228 57.7431C47.9025 57.5789 45.4175 57.1933 43.6901 56.8355C34.5974 54.405 30.3125 48.48 28.6267 41.8629C26.9215 35.17 27.8849 27.7575 29.4056 22.6065C29.7829 21.3283 28.843 20 27.4709 20H18.4054H6H5V21V63V64H6H60Z" fill="#5AB2FF" stroke="black" stroke-width="2"/>
<g filter="url(#filter1_d_37_2)">
<path d="M80.2496 55.175L73.6172 61.8075M80.2496 55.175L74.5893 49.5147M80.2496 55.175L83.9546 55.175M73.6172 61.8075L73.6172 65.5124M73.6172 61.8075L67.9569 56.1471M67.9569 53.3187L71.7608 49.5147M67.9569 53.3187C67.1758 54.0997 67.1758 55.366 67.9569 56.1471M67.9569 53.3187V53.3187C67.1758 54.0997 67.1758 55.366 67.9569 56.1471V56.1471M71.7608 49.5147C72.5419 48.7336 73.8082 48.7336 74.5893 49.5147M71.7608 49.5147V49.5147C72.5419 48.7336 73.8082 48.7336 74.5893 49.5147V49.5147M83.9546 55.175C85.5459 55.175 87.072 55.8072 88.1973 56.9324M83.9546 55.175V55.175C85.5459 55.175 87.072 55.8072 88.1973 56.9324V56.9324M88.1973 56.9324L108.559 77.2944M108.559 77.2944C109.684 78.4196 110.317 79.9457 110.317 81.537M108.559 77.2944V77.2944C109.684 78.4196 110.317 79.9457 110.317 81.537V81.537M110.317 81.537V82.7567M110.317 82.7567C110.317 84.348 109.684 85.8741 108.559 86.9994M110.317 82.7567V82.7567C110.317 84.348 109.684 85.8741 108.559 86.9994V86.9994M108.559 86.9994L105.442 90.1171M105.442 90.1171C104.316 91.2423 102.79 91.8744 101.199 91.8744M105.442 90.1171V90.1171C104.316 91.2423 102.79 91.8744 101.199 91.8744V91.8744M101.199 91.8744L99.9792 91.8744M99.9792 91.8744C98.3879 91.8744 96.8618 91.2423 95.7366 90.1171M99.9792 91.8744V91.8744C98.3879 91.8744 96.8618 91.2423 95.7366 90.1171V90.1171M95.7366 90.1171L75.3746 69.7551M75.3746 69.7551C74.2494 68.6299 73.6172 67.1037 73.6172 65.5124M75.3746 69.7551V69.7551C74.2494 68.6299 73.6172 67.1037 73.6172 65.5124V65.5124" stroke="black" stroke-width="2"/>
<path d="M67.7198 18.1828C75.8763 26.3392 75.8763 39.5634 67.7198 47.7198C59.5634 55.8763 46.3392 55.8763 38.1828 47.7198C30.0263 39.5634 30.0263 26.3392 38.1828 18.1828C46.3392 10.0263 59.5634 10.0263 67.7198 18.1828Z" stroke="black" stroke-width="2"/>
<path d="M47.6836 18.5877C40.3893 21.6799 38.9952 27.3501 39.2536 30.4681C39.2926 30.9394 39.5873 31.6401 40.0226 31.4552C40.4799 31.2609 40.4672 30.7051 40.4798 30.2084C40.6877 21.9679 48.2961 19.8571 49.493 18.949C49.721 18.7761 49.8433 18.6371 49.889 18.5262C50.2093 17.7483 48.4581 18.2594 47.6836 18.5877Z" fill="black" stroke="black" stroke-width="2"/>
</g>
<defs>
<filter id="filter0_d_37_2" x="0" y="0" width="123" height="90" filterUnits="userSpaceOnUse" color-interpolation-filters="sRGB">
<feFlood flood-opacity="0" result="BackgroundImageFix"/>
<feColorMatrix in="SourceAlpha" type="matrix" values="0 0 0 0 0 0 0 0 0 0 0 0 0 0 0 0 0 0 127 0" result="hardAlpha"/>
<feOffset dy="4"/>
<feGaussianBlur stdDeviation="2"/>
<feComposite in2="hardAlpha" operator="out"/>
<feColorMatrix type="matrix" values="0 0 0 0 0 0 0 0 0 0 0 0 0 0 0 0 0 0 0.25 0"/>
<feBlend mode="normal" in2="BackgroundImageFix" result="effect1_dropShadow_37_2"/>
<feBlend mode="normal" in="SourceGraphic" in2="effect1_dropShadow_37_2" result="shape"/>
</filter>
<filter id="filter1_d_37_2" x="27.0654" y="11.0654" width="88.2512" height="89.809" filterUnits="userSpaceOnUse" color-interpolation-filters="sRGB">
<feFlood flood-opacity="0" result="BackgroundImageFix"/>
<feColorMatrix in="SourceAlpha" type="matrix" values="0 0 0 0 0 0 0 0 0 0 0 0 0 0 0 0 0 0 127 0" result="hardAlpha"/>
<feOffset dy="4"/>
<feGaussianBlur stdDeviation="2"/>
<feComposite in2="hardAlpha" operator="out"/>
<feColorMatrix type="matrix" values="0 0 0 0 0 0 0 0 0 0 0 0 0 0 0 0 0 0 0.25 0"/>
<feBlend mode="normal" in2="BackgroundImageFix" result="effect1_dropShadow_37_2"/>
<feBlend mode="normal" in="SourceGraphic" in2="effect1_dropShadow_37_2" result="shape"/>
</filter>
</defs>
</svg>
