<svg width="17" height="16" viewBox="0 0 17 16" fill="none" xmlns="http://www.w3.org/2000/svg">
<path d="M4.333 9.26403C3.91879 9.26403 3.583 9.59982 3.583 10.014C3.583 10.4282 3.91879 10.764 4.333 10.764V9.26403ZM8.5 10.764C8.91421 10.764 9.25 10.4282 9.25 10.014C9.25 9.59982 8.91421 9.26403 8.5 9.26403V10.764ZM11.4365 7.81939C11.0849 8.03836 10.9774 8.5009 11.1964 8.8525C11.4153 9.20411 11.8779 9.31164 12.2295 9.09267L11.4365 7.81939ZM13.45 7.44903L13.8465 8.08567L13.8473 8.08517L13.45 7.44903ZM15.1392 7.40388L14.7765 8.06033L15.1392 7.40388ZM16 8.85803H16.75L16.75 8.85581L16 8.85803ZM16 11.171L16.75 11.1732V11.171H16ZM15.1392 12.6252L14.7765 11.9687L15.1392 12.6252ZM13.45 12.58L13.8473 11.9439L13.8468 11.9436L13.45 12.58ZM12.2298 10.9356C11.8782 10.7164 11.4157 10.8238 11.1965 11.1753C10.9774 11.5268 11.0847 11.9894 11.4362 12.2085L12.2298 10.9356ZM11.083 8.45603C11.083 8.87024 11.4188 9.20603 11.833 9.20603C12.2472 9.20603 12.583 8.87024 12.583 8.45603H11.083ZM11.833 8.35603H12.583V8.35581L11.833 8.35603ZM10.8561 6.00166L11.386 5.47085L10.8561 6.00166ZM8.5 5.02903V5.77903L8.50113 5.77903L8.5 5.02903ZM4.333 5.02903L4.3321 5.77903H4.333V5.02903ZM1 8.35203L0.25 8.35068V8.35203H1ZM1 11.676H0.249999L0.250001 11.6772L1 11.676ZM4.333 15V14.25L4.3321 14.25L4.333 15ZM8.5 15L8.5009 14.25H8.5V15ZM11.833 11.676L12.583 11.6772V11.676H11.833ZM12.583 11.576C12.583 11.1618 12.2472 10.826 11.833 10.826C11.4188 10.826 11.083 11.1618 11.083 11.576H12.583ZM12.583 8.46003C12.583 8.04582 12.2472 7.71003 11.833 7.71003C11.4188 7.71003 11.083 8.04582 11.083 8.46003H12.583ZM11.083 11.576C11.083 11.9902 11.4188 12.326 11.833 12.326C12.2472 12.326 12.583 11.9902 12.583 11.576H11.083ZM9 1.75003C9.41421 1.75003 9.75 1.41425 9.75 1.00003C9.75 0.585818 9.41421 0.250031 9 0.250031V1.75003ZM6.357 1.00003L6.35371 1.75003H6.357V1.00003ZM3.143 4.18503L2.393 4.18152V4.18503H3.143ZM2.393 5.24703C2.393 5.66124 2.72879 5.99703 3.143 5.99703C3.55721 5.99703 3.893 5.66124 3.893 5.24703H2.393ZM4.333 10.764H8.5V9.26403H4.333V10.764ZM12.2295 9.09267L13.8465 8.08567L13.0535 6.81239L11.4365 7.81939L12.2295 9.09267ZM13.8473 8.08517C14.1296 7.90888 14.4852 7.89938 14.7765 8.06033L15.5019 6.74742C14.7341 6.32318 13.7968 6.34824 13.0527 6.81289L13.8473 8.08517ZM14.7765 8.06033C15.0678 8.22129 15.249 8.52744 15.25 8.86025L16.75 8.85581C16.7474 7.97861 16.2697 7.17167 15.5019 6.74742L14.7765 8.06033ZM15.25 8.85803V11.171H16.75V8.85803H15.25ZM15.25 11.1688C15.249 11.5016 15.0678 11.8078 14.7765 11.9687L15.5019 13.2816C16.2697 12.8574 16.7474 12.0505 16.75 11.1732L15.25 11.1688ZM14.7765 11.9687C14.4852 12.1297 14.1296 12.1202 13.8473 11.9439L13.0527 13.2162C13.7968 13.6808 14.7341 13.7059 15.5019 13.2816L14.7765 11.9687ZM13.8468 11.9436L12.2298 10.9356L11.4362 12.2085L13.0532 13.2165L13.8468 11.9436ZM12.583 8.45603V8.35603H11.083V8.45603H12.583ZM12.583 8.35581C12.5827 7.2734 12.152 6.23553 11.386 5.47085L10.3263 6.53246C10.8106 7.01588 11.0828 7.67199 11.083 8.35626L12.583 8.35581ZM11.386 5.47085C10.6199 4.70616 9.58127 4.27741 8.49887 4.27903L8.50113 5.77903C9.18539 5.778 9.84199 6.04905 10.3263 6.53246L11.386 5.47085ZM8.5 4.27903H4.333V5.77903H8.5V4.27903ZM4.3339 4.27903C2.08209 4.27632 0.254058 6.09887 0.250001 8.35068L1.75 8.35338C1.75256 6.92965 2.90836 5.77732 4.3321 5.77903L4.3339 4.27903ZM0.25 8.35203V11.676H1.75V8.35203H0.25ZM0.250001 11.6772C0.253382 13.9294 2.08161 15.7527 4.3339 15.75L4.3321 14.25C2.90806 14.2517 1.75214 13.0989 1.75 11.6749L0.250001 11.6772ZM4.333 15.75H8.5V14.25H4.333V15.75ZM8.4991 15.75C10.7514 15.7527 12.5796 13.9294 12.583 11.6772L11.083 11.6749C11.0809 13.0989 9.92494 14.2517 8.5009 14.25L8.4991 15.75ZM12.583 11.676V11.576H11.083V11.676H12.583ZM11.083 8.46003V11.576H12.583V8.46003H11.083ZM9 0.250031H6.357V1.75003H9V0.250031ZM6.36029 0.250039C4.17924 0.240473 2.40321 2.00047 2.39301 4.18152L3.89299 4.18854C3.89932 2.83574 5.00091 1.74409 6.35371 1.75002L6.36029 0.250039ZM2.393 4.18503V5.24703H3.893V4.18503H2.393Z" fill="black"/>
</svg>
