<svg width="16" height="11" viewBox="0 0 16 11" fill="none" xmlns="http://www.w3.org/2000/svg">
<path d="M1 4.75C0.585786 4.75 0.25 5.08579 0.25 5.5C0.25 5.91421 0.585786 6.25 1 6.25V4.75ZM15 6.25C15.4142 6.25 15.75 5.91421 15.75 5.5C15.75 5.08579 15.4142 4.75 15 4.75V6.25ZM1 0.75C0.585786 0.75 0.25 1.08579 0.25 1.5C0.25 1.91421 0.585786 2.25 1 2.25V0.75ZM10.333 2.25C10.7472 2.25 11.083 1.91421 11.083 1.5C11.083 1.08579 10.7472 0.75 10.333 0.75V2.25ZM1 8.75C0.585786 8.75 0.25 9.08579 0.25 9.5C0.25 9.91421 0.585786 10.25 1 10.25V8.75ZM10.333 10.25C10.7472 10.25 11.083 9.91421 11.083 9.5C11.083 9.08579 10.7472 8.75 10.333 8.75V10.25ZM1 6.25H15V4.75H1V6.25ZM1 2.25H10.333V0.75H1V2.25ZM1 10.25H10.333V8.75H1V10.25Z" fill="black"/>
</svg>
