<svg width="16" height="19" viewBox="0 0 16 19" fill="none" xmlns="http://www.w3.org/2000/svg">
<path d="M11.4756 18.0351C11.7711 18.3254 12.246 18.3211 12.5362 18.0255C12.8264 17.73 12.8221 17.2551 12.5265 16.9649L11.4756 18.0351ZM8.52655 13.0369C8.23101 12.7467 7.75615 12.751 7.46593 13.0465C7.17571 13.3421 7.18002 13.8169 7.47556 14.1071L8.52655 13.0369ZM3.47549 16.965C3.17999 17.2552 3.17574 17.7301 3.466 18.0256C3.75626 18.3211 4.23111 18.3253 4.52661 18.0351L3.47549 16.965ZM8.52661 14.1061C8.82212 13.8158 8.82637 13.341 8.53611 13.0455C8.24585 12.75 7.771 12.7457 7.47549 13.036L8.52661 14.1061ZM8.00105 13.571L8.00125 12.821H8.00105V13.571ZM4.25805 13.571L4.23833 14.3208C4.2449 14.3209 4.25148 14.321 4.25805 14.321V13.571ZM1.00105 10.144L1.75083 10.1624C1.75098 10.1563 1.75105 10.1502 1.75105 10.144L1.00105 10.144ZM1.00105 5.00002H1.75105C1.75105 4.99381 1.75098 4.98759 1.75082 4.98138L1.00105 5.00002ZM4.25805 1.57202V0.822021C4.25148 0.822021 4.24491 0.822108 4.23834 0.822281L4.25805 1.57202ZM11.7431 1.57202L11.7625 0.822275C11.7561 0.822106 11.7496 0.822021 11.7431 0.822021V1.57202ZM15.0011 5.00002L14.2513 4.98139C14.2511 4.9876 14.2511 4.99381 14.2511 5.00002L15.0011 5.00002ZM15.0011 10.143H14.2511C14.2511 10.1493 14.2511 10.1556 14.2513 10.1619L15.0011 10.143ZM11.7441 13.572L11.7439 14.322C11.7505 14.322 11.7571 14.3219 11.7638 14.3218L11.7441 13.572ZM12.5265 16.9649L8.52655 13.0369L7.47556 14.1071L11.4756 18.0351L12.5265 16.9649ZM4.52661 18.0351L8.52661 14.1061L7.47549 13.036L3.47549 16.965L4.52661 18.0351ZM8.00105 12.821H4.25805V14.321H8.00105V12.821ZM4.27778 12.8213C2.84631 12.7836 1.71567 11.594 1.75083 10.1624L0.25128 10.1256C0.195804 12.3843 1.97974 14.2613 4.23833 14.3208L4.27778 12.8213ZM1.75105 10.144V5.00002H0.251054V10.144H1.75105ZM1.75082 4.98138C1.71523 3.54955 2.84599 2.35942 4.27777 2.32176L4.23834 0.822281C1.97926 0.881693 0.195123 2.7595 0.251286 5.01866L1.75082 4.98138ZM4.25805 2.32202H11.7431V0.822021H4.25805V2.32202ZM11.7236 2.32177C13.1556 2.359 14.2869 3.54926 14.2513 4.98139L15.7508 5.01865C15.807 2.75903 14.0221 0.881024 11.7625 0.822275L11.7236 2.32177ZM14.2511 5.00002V10.143H15.7511V5.00002H14.2511ZM14.2513 10.1619C14.2873 11.594 13.1564 12.7846 11.7243 12.8223L11.7638 14.3218C14.0233 14.2624 15.8077 12.3838 15.7508 10.1242L14.2513 10.1619ZM11.7443 12.822L8.00125 12.821L8.00085 14.321L11.7439 14.322L11.7443 12.822Z" fill="black"/>
</svg>
