<svg width="22" height="12" viewBox="0 0 22 12" fill="none" xmlns="http://www.w3.org/2000/svg">
<path d="M0.503753 7.70035C0.338261 8.22726 0.631246 8.78856 1.15815 8.95405C1.68506 9.11954 2.24636 8.82656 2.41185 8.29965L0.503753 7.70035ZM19.5881 8.29965C19.7536 8.82656 20.3149 9.11954 20.8418 8.95405C21.3688 8.78856 21.6617 8.22726 21.4962 7.70035L19.5881 8.29965ZM2.41185 8.29965C3.55897 4.64735 6.97163 2 11 2V0C6.07308 0 1.90516 3.23844 0.503753 7.70035L2.41185 8.29965ZM11 2C15.0284 2 18.441 4.64735 19.5881 8.29965L21.4962 7.70035C20.0948 3.23844 15.9269 0 11 0V2Z" fill="black"/>
<circle cx="11" cy="8" r="3" stroke="black" stroke-width="2" stroke-linecap="round" stroke-linejoin="round"/>
</svg>
